<?xml version="1.0" standalone="no"?>
<!DOCTYPE svg PUBLIC "-//W3C//DTD SVG 20010904//EN"
 "http://www.w3.org/TR/2001/REC-SVG-20010904/DTD/svg10.dtd">
<svg version="1.0" xmlns="http://www.w3.org/2000/svg"
 width="283.000000pt" height="283.000000pt" viewBox="0 0 283.000000 283.000000"
 preserveAspectRatio="xMidYMid meet">

<g transform="translate(0.000000,283.000000) scale(0.100000,-0.100000)"
fill="#000000" stroke="none">
<path d="M1125 2519 c-244 -27 -483 -146 -667 -333 -414 -421 -418 -1109 -9
-1539 220 -231 497 -347 826 -347 285 1 537 80 788 248 289 193 493 483 583
827 22 84 44 229 44 298 l0 58 -157 -3 -158 -3 -7 -86 c-32 -427 -317 -803
-717 -949 -149 -55 -212 -65 -386 -65 -181 1 -224 10 -360 77 -160 79 -275
192 -355 351 -105 209 -117 426 -35 642 91 241 290 420 540 486 227 59 404 21
541 -116 149 -148 180 -387 75 -571 -67 -116 -208 -214 -340 -235 -72 -11
-111 -6 -158 22 -35 22 -73 90 -73 133 0 42 28 94 68 124 31 23 45 27 141 32
l106 5 0 155 0 155 -93 3 c-120 4 -190 -10 -278 -53 -125 -61 -212 -170 -249
-312 -41 -156 17 -351 133 -454 155 -137 306 -165 547 -102 219 57 433 247
520 461 66 163 73 393 18 554 -130 374 -476 584 -888 537z"/>
</g>
</svg>
